<svg id="Layer_1" data-name="Layer 1" xmlns="http://www.w3.org/2000/svg" viewBox="0 0 379.84 55.07"><defs><style>.cls-1{isolation:isolate;}.cls-2{fill:#fff;}</style></defs><g id="SVEJSEBEREGNER" class="cls-1"><g class="cls-1"><path class="cls-2" d="M21,45.63l1.25,2.86a4.7,4.7,0,0,1-1.92.59c-1,.17-2.27.31-3.84.44A36,36,0,0,1,11,54a22.67,22.67,0,0,1-5.4,2.62L4.14,57a3.56,3.56,0,0,1-1.09-.2,10.63,10.63,0,0,1-1.31-.58,5.9,5.9,0,0,1-1.15-.9,1.31,1.31,0,0,1-.4-.91,2.52,2.52,0,0,1,.9-1.8,9.18,9.18,0,0,1,2.65-1.65c2.32-1.08,4.62-2.17,6.88-3.27a1,1,0,0,1,.72.2.67.67,0,0,1,.22.51c0,.56-.4,1-1.2,1.42s-1.2.66-1.2.82.27.32.37.32c.27,0,.87-.41,1.79-1.22s1.38-1.32,1.36-1.52l-.16-.72.06-.13a7.48,7.48,0,0,0,1.2-1.27,1.79,1.79,0,0,0,.39-.91,4.49,4.49,0,0,0-.78-2.08,23.21,23.21,0,0,0-2.33-3.15,31.62,31.62,0,0,0-2.37-2.57c-.79-.76-1.55-1.43-2.27-2a7.5,7.5,0,0,1-.75-.73,5,5,0,0,1-.5-.67c-.23-.42-.41-.76-.54-1a1.94,1.94,0,0,0-.36-.53L3.85,32l-.64-.61a4.4,4.4,0,0,1-1-1.9,10.76,10.76,0,0,1-.36-3,8,8,0,0,1,.33-2.29,6.7,6.7,0,0,1,.94-2,2.5,2.5,0,0,0,.19-.43c.06-.17.14-.35.22-.56A12.23,12.23,0,0,1,6,18a32.06,32.06,0,0,1,4.49-3.6l.9-.5a12.67,12.67,0,0,0,1.18-.81,5.48,5.48,0,0,1,.83-.56,7.26,7.26,0,0,1,1.07-.47l1.9-.75a22.45,22.45,0,0,1,2.59-1.18,4.94,4.94,0,0,1,1.56-.37,1.88,1.88,0,0,1,1.54.62,2.81,2.81,0,0,1,.51,1.81,9.49,9.49,0,0,1-.2,2.13,2.11,2.11,0,0,1-.55,1.11q-3.68,2.92-5.92,4.4a7.35,7.35,0,0,1-3.14,1.48.93.93,0,0,1-.69-.25,1,1,0,0,1-.25-.74q0-.84,1.41-1.86c.93-.67,1.39-1.19,1.37-1.54l-.28-.19a.89.89,0,0,0-.36.1,1.86,1.86,0,0,0-.42.25,26.14,26.14,0,0,0-4.13,4A5.33,5.33,0,0,0,8,24.12a6.41,6.41,0,0,0,.36,2.08,10.56,10.56,0,0,0,1.05,2.18q.49.78,1.44,2c.64.8,1.44,1.76,2.42,2.88q2,2.34,3.11,3.62a12.45,12.45,0,0,0,1.22,1.34,12.45,12.45,0,0,1,1.06,1.62,5.75,5.75,0,0,1,.59,1.55,8.52,8.52,0,0,1,.22,1.47c0,.58.06,1.29.06,2.12,0,.48.07.76.22.84a1.71,1.71,0,0,0,.71.11.51.51,0,0,0,.3-.08A1.92,1.92,0,0,0,21,45.63Z" transform="translate(-0.19 -8.56)"/><path class="cls-2" d="M43.55,24.6c-.09-.35-.17-.66-.25-.93.1-.61.22-1.19.34-1.76s.23-1.16.31-1.76A8.41,8.41,0,0,1,44.71,18a2.19,2.19,0,0,1,1-1l2-.84c.23-.09.55-.19,1-.31a.51.51,0,0,1,.49.31,2,2,0,0,1,.16.9,11.67,11.67,0,0,1-.16,1.25c-.1.68-.25,1.65-.43,2.89,0,.29-.08.6-.11.91s-.08.62-.14.93a1.58,1.58,0,0,1-.22.73c-.14.28-.33.61-.56,1a7.71,7.71,0,0,1-.67,3c-.55,1.6-1.4,3.75-2.57,6.48Q43,37.62,41.87,40.17t-2,4.21c-.29.58-.62,1.21-1,1.88s-.76,1.38-1.16,2.11l.53,1.18a1.81,1.81,0,0,1-.12.62c-.29.34-.66.76-1.09,1.28s-.95,1.1-1.53,1.75c-.39.18-.82.39-1.27.62-.31.41-.57.78-.78,1.09a5.64,5.64,0,0,1-1.11.51,2.8,2.8,0,0,1-.94.17A2,2,0,0,1,30,54.85a2.33,2.33,0,0,1-.67-1.53A2.19,2.19,0,0,1,30,52a4.58,4.58,0,0,0,.81-1l-.09-.31-.31-.4a8.94,8.94,0,0,0-.35-1.42,7.48,7.48,0,0,0-.53-1.23,11.21,11.21,0,0,1-1-2.29c-.29-.9-.56-1.94-.81-3.1-.1-.54-.18-1-.23-1.29a5.79,5.79,0,0,1-.08-.64,4.87,4.87,0,0,1-.28-.62c-.11-.27-.22-.58-.34-.94-.11-.68-.24-1.55-.39-2.58s-.32-2.26-.49-3.65a2.92,2.92,0,0,0-.08-.59c-.05-.23-.13-.51-.23-.84a3.82,3.82,0,0,1-.25-.81,3.69,3.69,0,0,1-.06-.62c0-.61,0-1.2,0-1.78a1.83,1.83,0,0,1-.13-.81l.25-1.21A3.73,3.73,0,0,1,25,24.79a4.65,4.65,0,0,1-.21-1.47,2,2,0,0,1,.1-.59,3.11,3.11,0,0,1,.22-.53,7.09,7.09,0,0,1-.25-1,5.52,5.52,0,0,1-.1-1.11,3.55,3.55,0,0,1-.45-.92,1.46,1.46,0,0,1-.05-.79l.19-1.25c-.08-.31-.15-.57-.22-.77.23-1.25.43-2.25.59-3a13.77,13.77,0,0,1,.38-1.43,4.43,4.43,0,0,1,1.32-1.76,5,5,0,0,1,2.14-.92c.29-.2.54-.37.76-.5A1.28,1.28,0,0,1,30,8.56a.88.88,0,0,1,.64.32,2.71,2.71,0,0,1,.48.95,5.83,5.83,0,0,1,.2,1,5.69,5.69,0,0,1,0,.91c-.09.76-.17,1.65-.25,2.64s-.15,2.11-.19,3.34a7,7,0,0,1-.28.7,1.91,1.91,0,0,0-.22.76,3.63,3.63,0,0,0,.22,1,4.1,4.1,0,0,1,.22,1,6.76,6.76,0,0,1-.06.69c-.05.33-.11,1-.19,1.9.08.48.19,1,.31,1.5,0,.22,0,.6-.09,1.12a9.29,9.29,0,0,0-.1,1.15.62.62,0,0,0,.07.33,5.64,5.64,0,0,1,.24.85c0,.46.07,1,.15,1.58s.16,1.29.26,2.1.23,1.59.39,2.65.31,2.28.46,3.67l0,1a1.34,1.34,0,0,0,.12.51,2.75,2.75,0,0,0,.38.61c.12.56.26,1.16.4,1.81s.3,1.31.44,2a1.24,1.24,0,0,0,.22.53.45.45,0,0,0,.35.19A7.1,7.1,0,0,0,35.31,44,7.61,7.61,0,0,0,36,42.74c.3-.61.65-1.43,1.07-2.47a7.52,7.52,0,0,1,.47-1c.2-.37.44-.8.71-1.27a18.51,18.51,0,0,0,1.12-2.28q.72-1.65,1.74-4.36l1.42-3.8c.38-1,.66-1.84.82-2.4Z" transform="translate(-0.19 -8.56)"/><path class="cls-2" d="M75,45.66l1.18,2.86a9.57,9.57,0,0,1-.83.67c-.32.24-.7.5-1.13.77s-1,.35-1.58.62l-2.1.93a13.54,13.54,0,0,1-1.48.84,2.23,2.23,0,0,1-.79.28,6.06,6.06,0,0,0-1.48.35q-1.08.35-2.82,1c-.62.23-1.28.47-2,.71s-1.42.45-2.16.63l-1.93-.4-1.19.53-1.2,0c-.4,0-.79,0-1.17-.07A3.8,3.8,0,0,1,53,55.13a.69.69,0,0,1-.45-.63l.19-1.18-.19-.22a2.45,2.45,0,0,1-1.42-.28c-.24-.19-.36-.62-.36-1.31,0-.31,0-.83,0-1.55s.08-1.68.14-2.84a2.52,2.52,0,0,1,.2-.65,2.12,2.12,0,0,0,.2-.72,1.92,1.92,0,0,1-.18-.5,2.14,2.14,0,0,1,0-.34c0-.81.13-1.81.26-3s.31-2.59.52-4.21a32.1,32.1,0,0,0,.62-3.3c0-.91-.09-1.85-.13-2.8q1.15-5.17,2.37-10.41a5.6,5.6,0,0,1,.7-1.77,10.19,10.19,0,0,1,1.23-1.62,2.55,2.55,0,0,0,.41-.34c.1-.19.24-.42.4-.7l.59-.95.61-.38,1.14-.68.71-.59c.27-.23.59-.5.94-.82a21.26,21.26,0,0,0,2.2-1.51,5,5,0,0,1,2.53-1l1.44-.07L69,10.68a7.36,7.36,0,0,1,1.09-.16l.54-.12a1.41,1.41,0,0,1,.42-.07,4.21,4.21,0,0,1,.52.05l.88.14.75,0a5.41,5.41,0,0,0,.59,0,3.66,3.66,0,0,1,1.84,1.09,2.58,2.58,0,0,1,.59,1.71,9.12,9.12,0,0,1-.42,3.2,1.4,1.4,0,0,1-1.32,1,2.6,2.6,0,0,1-1.56-.7c-.58-.47-2.15-.7-4.7-.7l-3.15.62a1.1,1.1,0,0,1-.36.38,2.35,2.35,0,0,1-.35.18l-1.09-.4a2.8,2.8,0,0,0-1.13,1,14,14,0,0,0-1.3,2.31,2.56,2.56,0,0,0-.24.78,6.85,6.85,0,0,0-.08,1.09c-.37,1.49-.74,2.94-1.12,4.33s-.64,2.63-.85,3.39-.35,1.24-.39,1.41a4.73,4.73,0,0,0-.16.59,2.6,2.6,0,0,0-.06.56,1.07,1.07,0,0,0,.15.62.54.54,0,0,0,.47.22c.19,0,.64-.34,1.36-1a4.45,4.45,0,0,1,1.6-1.15c.44-.13.88-.26,1.33-.41a14.28,14.28,0,0,0,1.38-.53,11.7,11.7,0,0,1,1.48-.24c.8-.11,1.92-.23,3.35-.38l.87.25,1.65-.31.87.4a4,4,0,0,1,.58.77,6.86,6.86,0,0,1,.48,1,7.65,7.65,0,0,1-.4,2.83,1.31,1.31,0,0,1-1.22,1l-1.71-.69L66,35.14c-1.38.14-2.79.27-4.22.39a9,9,0,0,0-4,1.72,4.39,4.39,0,0,0-1.56,3.11A10.26,10.26,0,0,1,56,41.61c-.13.56-.27,1.25-.44,2.08l.22.94c-.19.89-.33,1.73-.44,2.52a17.11,17.11,0,0,0-.15,2.12.84.84,0,0,0,.09.45.16.16,0,0,0,.22.08l2.4-.19a10,10,0,0,1,1.27,0l1.65.13,2-.16a9.89,9.89,0,0,0,1.35-.5A5,5,0,0,1,66,48.62a9.46,9.46,0,0,0,1.82-.19,12.33,12.33,0,0,0,1.76-.5l1.67-.64L73,46.65a5,5,0,0,0,.83-.34C74.12,46.15,74.52,45.93,75,45.66Z" transform="translate(-0.19 -8.56)"/><path class="cls-2" d="M87.87,14.59a2.23,2.23,0,0,1,.92-.85,8.07,8.07,0,0,1,1.38-.58c.27-.31.61-.67,1-1.09a3.05,3.05,0,0,1,.52-.38,5,5,0,0,1,.73-.39c.41-.17.78-.32,1.09-.47.48,0,.85.37,1.1,1.09A10.7,10.7,0,0,1,95,15.19a38.62,38.62,0,0,1-.43,6.06,21.71,21.71,0,0,1-1.26,4.81l-.2.56q-.11.31-.27.69c-.06.37-.15.81-.26,1.31s-.25,1.08-.39,1.74a5.84,5.84,0,0,0-.08.8,7.67,7.67,0,0,1-.14,1.1,12.11,12.11,0,0,1-.37,1.39c-.21.65-.52,1.49-.94,2.51l.13.68c-.17.58-.39,1.3-.67,2.15s-.62,1.83-1,2.93c-.12.54-.31,1.19-.56,1.95s-.55,1.63-.9,2.63c-.07.54-.13,1-.19,1.4,0,.17-.18.61-.41,1.34s-.6,1.73-1.12,3a2.45,2.45,0,0,1-.79,1,6.7,6.7,0,0,1-1.58.86,12.45,12.45,0,0,1-1.6.53,6.38,6.38,0,0,1-1.45.18,3.39,3.39,0,0,1-1.78-.45,2.61,2.61,0,0,1-1.09-1.29c-.81-2-1.41-3.59-1.79-4.78a8.49,8.49,0,0,1-.55-2.35c-.1-.19-.25-.52-.45-1a14.66,14.66,0,0,1-.61-2c-.2-.75-.35-1.38-.45-1.9a7.8,7.8,0,0,1-.14-1.22,11.28,11.28,0,0,1,.31-3c.21-.68.52-1,.94-1a5.34,5.34,0,0,1,1.89.31,3.81,3.81,0,0,1,1.35.88,5,5,0,0,1,.67,1.15c.24.51.52,1.18.83,2s.72,1.69.92,2.27a4.53,4.53,0,0,1,.29,1.15c0,.38-.25.72-.76,1s-.76.58-.76.83a10.59,10.59,0,0,1,.48,1.09c.14.38.28.72.42,1a4.07,4.07,0,0,0,.7,1.23,1,1,0,0,0,.74.4c.33,0,.71-.47,1.13-1.41a27.5,27.5,0,0,0,1.39-4.24c.4-1.39.74-2.65,1-3.8a32,32,0,0,0,.67-3.14c.14-.4.3-.87.46-1.42s.36-1.21.57-2a2.1,2.1,0,0,0,.1-.61c0-.24,0-.52.11-.86.17-1,.35-2.09.55-3.16s.39-2.13.58-3.19c.2-1.25.35-2.41.43-3.48s.13-2.05.13-2.94-.51-1.2-1.53-1.34-1.52-.39-1.52-.72a1.61,1.61,0,0,1,.52-1A9.14,9.14,0,0,1,87.87,14.59Z" transform="translate(-0.19 -8.56)"/><path class="cls-2" d="M116.12,45.63l1.25,2.86a4.7,4.7,0,0,1-1.91.59c-1,.17-2.27.31-3.85.44A36,36,0,0,1,106.14,54a22.67,22.67,0,0,1-5.4,2.62L99.3,57a3.56,3.56,0,0,1-1.09-.2,9.93,9.93,0,0,1-1.3-.58,5.71,5.71,0,0,1-1.16-.9,1.31,1.31,0,0,1-.4-.91,2.52,2.52,0,0,1,.9-1.8,9.32,9.32,0,0,1,2.65-1.65q3.5-1.62,6.88-3.27a1,1,0,0,1,.72.2.64.64,0,0,1,.22.51c0,.56-.4,1-1.2,1.42s-1.2.66-1.2.82.27.32.37.32c.27,0,.87-.41,1.79-1.22s1.38-1.32,1.36-1.52l-.16-.72.07-.13a7.48,7.48,0,0,0,1.2-1.27,1.85,1.85,0,0,0,.38-.91,4.57,4.57,0,0,0-.77-2.08,24.32,24.32,0,0,0-2.34-3.15,31.62,31.62,0,0,0-2.37-2.57c-.79-.76-1.54-1.43-2.27-2a7.5,7.5,0,0,1-.75-.73,5,5,0,0,1-.5-.67c-.23-.42-.41-.76-.54-1a1.94,1.94,0,0,0-.36-.53L99,32l-.64-.61a4.5,4.5,0,0,1-1-1.9,10.76,10.76,0,0,1-.36-3,8,8,0,0,1,.33-2.29,6.48,6.48,0,0,1,1-2,3.73,3.73,0,0,0,.18-.43l.22-.56A12.23,12.23,0,0,1,101.11,18a32.06,32.06,0,0,1,4.49-3.6c.25-.13.55-.29.9-.5a12.67,12.67,0,0,0,1.18-.81,5.48,5.48,0,0,1,.83-.56,7.26,7.26,0,0,1,1.07-.47l1.9-.75a22.45,22.45,0,0,1,2.59-1.18,4.94,4.94,0,0,1,1.56-.37,1.87,1.87,0,0,1,1.54.62,2.81,2.81,0,0,1,.51,1.81,8.94,8.94,0,0,1-.2,2.13,2.19,2.19,0,0,1-.54,1.11q-3.69,2.92-5.92,4.4a7.42,7.42,0,0,1-3.15,1.48.89.89,0,0,1-.68-.25,1,1,0,0,1-.25-.74c0-.56.46-1.18,1.4-1.86s1.39-1.19,1.37-1.54l-.28-.19a.89.89,0,0,0-.36.1,1.86,1.86,0,0,0-.42.25,26.59,26.59,0,0,0-4.13,4,5.3,5.3,0,0,0-1.38,3.07,6.4,6.4,0,0,0,.35,2.08,10.56,10.56,0,0,0,1.05,2.18,23.36,23.36,0,0,0,1.45,2c.63.8,1.43,1.76,2.41,2.88l3.12,3.62a13.1,13.1,0,0,0,1.21,1.34,11.5,11.5,0,0,1,1.06,1.62,5.75,5.75,0,0,1,.59,1.55,8.52,8.52,0,0,1,.22,1.47c0,.58.06,1.29.06,2.12,0,.48.07.76.22.84a1.73,1.73,0,0,0,.72.11.5.5,0,0,0,.29-.08A1.92,1.92,0,0,0,116.12,45.63Z" transform="translate(-0.19 -8.56)"/><path class="cls-2" d="M143.32,45.66l1.18,2.86c-.23.21-.5.43-.82.67s-.7.5-1.14.77a16.12,16.12,0,0,0-1.57.62l-2.11.93a13.54,13.54,0,0,1-1.48.84,2.17,2.17,0,0,1-.79.28,6.06,6.06,0,0,0-1.48.35q-1.08.35-2.82,1c-.62.23-1.28.47-2,.71s-1.41.45-2.16.63l-1.93-.4-1.19.53-1.2,0c-.4,0-.79,0-1.16-.07a3.82,3.82,0,0,1-1.36-.25.69.69,0,0,1-.45-.63l.19-1.18-.19-.22a2.45,2.45,0,0,1-1.42-.28c-.24-.19-.36-.62-.36-1.31,0-.31,0-.83,0-1.55s.08-1.68.14-2.84a2.52,2.52,0,0,1,.2-.65,2.21,2.21,0,0,0,.21-.72,1.68,1.68,0,0,1-.19-.5,2.14,2.14,0,0,1,0-.34c0-.81.13-1.81.26-3s.31-2.59.52-4.21a29.62,29.62,0,0,0,.62-3.3c0-.91-.08-1.85-.12-2.8q1.14-5.17,2.36-10.41a5.6,5.6,0,0,1,.7-1.77A11.54,11.54,0,0,1,125,17.81a2.15,2.15,0,0,0,.41-.34c.1-.19.24-.42.4-.7s.37-.6.6-.95c.12-.09.32-.21.6-.38l1.14-.68.72-.59c.27-.23.58-.5.93-.82a21.26,21.26,0,0,0,2.2-1.51,5,5,0,0,1,2.54-1l1.43-.07,1.37-.11a7.36,7.36,0,0,1,1.09-.16l.54-.12a1.41,1.41,0,0,1,.42-.07,4.21,4.21,0,0,1,.52.05l.89.14.74,0a5.74,5.74,0,0,0,.6,0A3.63,3.63,0,0,1,144,11.61a2.59,2.59,0,0,1,.6,1.71,9.12,9.12,0,0,1-.42,3.2,1.42,1.42,0,0,1-1.33,1,2.62,2.62,0,0,1-1.56-.7c-.58-.47-2.15-.7-4.7-.7l-3.15.62a1.18,1.18,0,0,1-.35.38,3,3,0,0,1-.36.18l-1.09-.4a2.78,2.78,0,0,0-1.12,1,13.23,13.23,0,0,0-1.31,2.31,2.87,2.87,0,0,0-.24.78,7,7,0,0,0-.07,1.09c-.38,1.49-.75,2.94-1.13,4.33s-.63,2.63-.85,3.39-.35,1.24-.39,1.41-.12.4-.16.59a2.6,2.6,0,0,0-.06.56,1,1,0,0,0,.16.62.52.52,0,0,0,.46.22c.19,0,.64-.34,1.36-1a4.54,4.54,0,0,1,1.6-1.15c.44-.13.88-.26,1.33-.41a14.28,14.28,0,0,0,1.38-.53,11.7,11.7,0,0,1,1.48-.24c.8-.11,1.92-.23,3.35-.38l.87.25,1.65-.31.88.4a4,4,0,0,1,.57.77,8.14,8.14,0,0,1,.49,1,7.62,7.62,0,0,1-.41,2.83,1.3,1.3,0,0,1-1.21,1l-1.72-.69-4.19.42c-1.38.14-2.78.27-4.22.39a9,9,0,0,0-4,1.72,4.35,4.35,0,0,0-1.55,3.11,10.79,10.79,0,0,1-.22,1.25c-.13.56-.27,1.25-.44,2.08l.22.94c-.19.89-.33,1.73-.44,2.52a17.11,17.11,0,0,0-.15,2.12.84.84,0,0,0,.09.45.16.16,0,0,0,.22.08l2.4-.19a10.12,10.12,0,0,1,1.28,0l1.65.13,2-.16a9.42,9.42,0,0,0,1.35-.5,5,5,0,0,1,1.89-.43,9.46,9.46,0,0,0,1.82-.19,12.33,12.33,0,0,0,1.76-.5l1.67-.64,1.66-.64a5,5,0,0,0,.83-.34C142.46,46.15,142.86,45.93,143.32,45.66Z" transform="translate(-0.19 -8.56)"/><path class="cls-2" d="M145.09,54.66c.19-.17.46-.39.8-.67s.78-.62,1.32-1a3.54,3.54,0,0,0,.91-.78,1.33,1.33,0,0,0,.28-.78c0-1,0-1.6,0-1.87s0-.48,0-.63c0-2,.06-3.55.16-4.67a6,6,0,0,1,.41-2.09l-.07-.94-.18-.22c0-.22,0-.43,0-.6s0-.33,0-.46a2.05,2.05,0,0,0-1.51-2.18,1.87,1.87,0,0,1-1.51-1.9c0-.29.29-.65.87-1.07a21.74,21.74,0,0,1,2.55-1.54c.15-1,.3-2.13.47-3.33s.36-2.54.59-4c-.08-.27-.14-.49-.19-.67a2.1,2.1,0,0,1-.06-.48,7.28,7.28,0,0,1,.25-2,8.5,8.5,0,0,1,.69-1.71,8,8,0,0,1,.71-.95c.29-.34.65-.72,1.06-1.14a5.76,5.76,0,0,0,.75-.82,1.09,1.09,0,0,0,.25-.58.48.48,0,0,0-.2-.4.91.91,0,0,0-.58-.16,11.93,11.93,0,0,0-3.39.73,12,12,0,0,1-3.37.73,1.19,1.19,0,0,1-.54-.09.32.32,0,0,1-.18-.31,7,7,0,0,1,.07-1.09,2.3,2.3,0,0,1,.15-.65,4.54,4.54,0,0,0,.83-.78,1.24,1.24,0,0,0,.29-.75c0-.1.11-.24.33-.41a3.15,3.15,0,0,1,1-.43l4.38-1.25,1.73-.5a27.62,27.62,0,0,1,3.33-.63,22.74,22.74,0,0,1,3-.21,5.11,5.11,0,0,1,.62.08,1.51,1.51,0,0,0,.63,0l1.31-.22a10.82,10.82,0,0,1,1.09.17l2.52.48.75-.15a3.57,3.57,0,0,1,1.51.28,2.27,2.27,0,0,1,1,.77,3.56,3.56,0,0,0,.84.1,2.61,2.61,0,0,1,1.48.45,4.1,4.1,0,0,1,1.17,1.29,8.72,8.72,0,0,1,.68,1.6,5.35,5.35,0,0,1,.25,1.64,7.19,7.19,0,0,1-.7,3.13,9,9,0,0,1-2.1,2.75c-.11.06-.61.43-1.51,1.11S167.75,26.5,166,27.7a5.86,5.86,0,0,0-.66.53,9.43,9.43,0,0,1-.9.72l-4.92,2.93a27.41,27.41,0,0,0-3,1.83c-.69.5-1,.85-1,1.06a1.45,1.45,0,0,0,.53,1.11,4.65,4.65,0,0,0,1.62.85L161.23,38c1.33.48,2.75,1.05,4.27,1.72A2.42,2.42,0,0,1,166,40l.73.4a9.91,9.91,0,0,1,4,2.45A4.87,4.87,0,0,1,172,46.18q0,2.77-5,5.27t-15,4.74a8,8,0,0,1-.36.87q-.19.44-.36.84a1.43,1.43,0,0,1-.62.54,2,2,0,0,1-.93.21,1.15,1.15,0,0,1-.94-.42,2.68,2.68,0,0,1-.46-1.33c-.17-.14-.31-.21-.41-.19l-1.77.47-.64-.32-.61-.3a1.83,1.83,0,0,1-.5-.45,1,1,0,0,1-.19-.58.54.54,0,0,1,.21-.45A4.46,4.46,0,0,1,145.09,54.66Zm9.57-14.78c-.34,0-.62.29-.86.86a10.57,10.57,0,0,0-.58,2.54c-.08,1-.16,2.09-.25,3.14l-.24,3.13c-.13.52-.23,1.07-.32,1.65l.07.31.25.13c.83-.23,1.75-.47,2.77-.72a2.31,2.31,0,0,0,1.26-.2c.13-.14,1.81-.92,5-2.36a15.27,15.27,0,0,0,3.08-1.63c.69-.51,1-.95,1-1.33a1,1,0,0,0-.28-.65,4,4,0,0,0-.84-.66,23.47,23.47,0,0,0-3.24-1.7A35.07,35.07,0,0,0,157.65,41l-.64-.2-.8-.23-1-.5A1.48,1.48,0,0,0,154.66,39.88Zm6-23.35a9,9,0,0,0-1.92.17,1.94,1.94,0,0,0-1,.55,2.64,2.64,0,0,0-.51,1,19.44,19.44,0,0,0-.58,2,13,13,0,0,0-.17,1.53c0,.56,0,1.17,0,1.84a8.53,8.53,0,0,1-.71,1.36l.15.81c-.25,1-.42,1.87-.53,2.49a10,10,0,0,0-.15,1.25.92.92,0,0,0,.18.65.72.72,0,0,0,.53.19,4.55,4.55,0,0,0,1.48-.69c.78-.45,1.86-1.14,3.23-2.05l3.47-2.29c.8-.53,1.26-.82,1.39-.88l.79-1,.76-.95a5.9,5.9,0,0,0,.78-1.17,2.09,2.09,0,0,0,.25-.92,2.12,2.12,0,0,0-.46-1.34,4,4,0,0,0-1.41-1c-.2-.08-.57-.2-1.1-.37s-1.21-.33-2-.5l-1.62-.43A4,4,0,0,0,160.7,16.53Z" transform="translate(-0.19 -8.56)"/><path class="cls-2" d="M199.51,45.66l1.19,2.86c-.23.21-.51.43-.83.67s-.7.5-1.14.77-1,.35-1.57.62l-2.1.93a14.54,14.54,0,0,1-1.48.84,2.26,2.26,0,0,1-.8.28,6.06,6.06,0,0,0-1.48.35c-.71.23-1.65.57-2.81,1l-2,.71c-.7.23-1.42.45-2.17.63l-1.93-.4-1.18.53-1.2,0c-.41,0-.8,0-1.17-.07a3.8,3.8,0,0,1-1.35-.25.69.69,0,0,1-.46-.63l.19-1.18-.19-.22a2.44,2.44,0,0,1-1.41-.28c-.24-.19-.36-.62-.36-1.31,0-.31,0-.83,0-1.55s.08-1.68.14-2.84a2.3,2.3,0,0,1,.21-.65,2.4,2.4,0,0,0,.2-.72,2,2,0,0,1-.19-.5,2.14,2.14,0,0,1,0-.34c0-.81.13-1.81.27-3s.3-2.59.51-4.21a27.49,27.49,0,0,0,.62-3.3c0-.91-.08-1.85-.12-2.8q1.15-5.17,2.37-10.41a5.16,5.16,0,0,1,.7-1.77,10.19,10.19,0,0,1,1.23-1.62,2,2,0,0,0,.4-.34c.11-.19.24-.42.41-.7s.36-.6.59-.95c.12-.09.33-.21.61-.38l1.13-.68.72-.59c.27-.23.58-.5.93-.82a20.24,20.24,0,0,0,2.2-1.51,5.07,5.07,0,0,1,2.54-1l1.43-.07,1.37-.11a7.55,7.55,0,0,1,1.09-.16l.55-.12a1.32,1.32,0,0,1,.42-.07,4.08,4.08,0,0,1,.51.05l.89.14.75,0a5.54,5.54,0,0,0,.59,0,3.71,3.71,0,0,1,1.84,1.09,2.63,2.63,0,0,1,.59,1.71,9.12,9.12,0,0,1-.42,3.2,1.41,1.41,0,0,1-1.33,1,2.6,2.6,0,0,1-1.55-.7c-.58-.47-2.15-.7-4.71-.7l-3.14.62a1.32,1.32,0,0,1-.36.38,2.4,2.4,0,0,1-.36.18l-1.09-.4a2.78,2.78,0,0,0-1.12,1,13.91,13.91,0,0,0-1.31,2.31,2.89,2.89,0,0,0-.23.78,6.85,6.85,0,0,0-.08,1.09c-.37,1.49-.75,2.94-1.12,4.33s-.64,2.63-.86,3.39-.35,1.24-.39,1.41-.11.4-.15.59a2.6,2.6,0,0,0-.07.56,1.07,1.07,0,0,0,.16.62.52.52,0,0,0,.47.22c.18,0,.64-.34,1.35-1a4.46,4.46,0,0,1,1.61-1.15c.43-.13.87-.26,1.32-.41a13.48,13.48,0,0,0,1.39-.53,11.35,11.35,0,0,1,1.48-.24c.8-.11,1.91-.23,3.34-.38l.88.25,1.65-.31.87.4a4,4,0,0,1,.58.77,9.94,9.94,0,0,1,.48,1,7.62,7.62,0,0,1-.41,2.83,1.3,1.3,0,0,1-1.21,1l-1.71-.69-4.19.42c-1.38.14-2.79.27-4.22.39a8.93,8.93,0,0,0-4,1.72,4.32,4.32,0,0,0-1.56,3.11,9,9,0,0,1-.22,1.25c-.12.56-.27,1.25-.43,2.08l.21.94c-.18.89-.33,1.73-.43,2.52a15.51,15.51,0,0,0-.16,2.12.75.75,0,0,0,.1.45c.06.1.13.12.21.08l2.4-.19a10.12,10.12,0,0,1,1.28,0l1.65.13,2-.16a9.84,9.84,0,0,0,1.36-.5,4.91,4.91,0,0,1,1.88-.43,9.46,9.46,0,0,0,1.82-.19,12,12,0,0,0,1.76-.5l1.67-.64,1.67-.64a5,5,0,0,0,.82-.34A12.58,12.58,0,0,0,199.51,45.66Z" transform="translate(-0.19 -8.56)"/><path class="cls-2" d="M211.25,37.45a3,3,0,0,0,.89,1.67,24.28,24.28,0,0,0,2.67,2.57c.76.65,1.56,1.27,2.38,1.89s1.63,1.23,2.44,1.85L221,46.57l2,1.64c.54.41,1.1.83,1.7,1.24s1.23.83,1.91,1.25c.46.35,1,.74,1.53,1.15s1.2.86,1.93,1.34a2.41,2.41,0,0,1,1,1.36,8.79,8.79,0,0,1,.41,2.54l-.28.81-.31.15a1.88,1.88,0,0,1-.83-.26c-.34-.18-.77-.43-1.29-.76-.11-.07-.58-.3-1.42-.69s-2.05-1-3.63-1.68a17,17,0,0,1-2.4-1.27,17.14,17.14,0,0,1-2-1.48,14.53,14.53,0,0,0-1.35-1c-.55-.37-1.2-.78-1.95-1.21s-1.43-.85-2-1.25-1-.73-1.33-1c-1.13-.91-2-1.61-2.75-2.09a3.52,3.52,0,0,0-1.46-.71,1.7,1.7,0,0,0-.34.9c-.25,1-.52,2.21-.8,3.7s-.58,3.21-.92,5.19a1.4,1.4,0,0,1-.18.79.64.64,0,0,1-.56.27,2.59,2.59,0,0,1-1.84-.59,2.34,2.34,0,0,1-.62-1.78,28,28,0,0,1,.2-3.34,30.32,30.32,0,0,1,.67-3.68c.1-.56.18-1.06.23-1.51a11.31,11.31,0,0,0,.08-1.23,3.09,3.09,0,0,0-1.23-2.46q-1.23-1-1.23-1.47a3.43,3.43,0,0,1,.2-1.2,2,2,0,0,1,.61-.82c.68-.44,1.32-.85,1.9-1.25a.63.63,0,0,0,.29-.42,3,3,0,0,0,.08-.82V33.56c.07-1.85.12-3.77.16-5.76v-.69c0-.31,0-.71-.06-1.21a4.6,4.6,0,0,1,0-1c0-.32,0-.62,0-.89l-.33-1.07a3,3,0,0,1-.14-.86q0-.37.06-1.17c0-.53.06-.91.06-1.13s0-.7-.07-1.22a10.58,10.58,0,0,1-.08-1.18,4.79,4.79,0,0,1,.51-2.15,7.44,7.44,0,0,1,1.58-2,8.29,8.29,0,0,1,2.1-1.33,5.61,5.61,0,0,1,2.19-.45c.36,0,.88,0,1.58.08s1.24.08,1.63.08a10.17,10.17,0,0,1,2.21.68,12.53,12.53,0,0,1,1.28.17,7.39,7.39,0,0,1,.9.24l1.22.57a2.77,2.77,0,0,0,.62.24l.92.31a2.24,2.24,0,0,1,.64.31l.95.44,1.23.56a13.17,13.17,0,0,1,2.1,1.3A19.1,19.1,0,0,1,228.08,18a9.19,9.19,0,0,1,1.49,2.2,5.06,5.06,0,0,1,.5,2.13c0,.21,0,.5,0,.89s-.09.81-.17,1.29a3.85,3.85,0,0,1-.93,1.95,15.3,15.3,0,0,1-2.43,2.29,29.5,29.5,0,0,1-2.62,1.82,10.68,10.68,0,0,1-2.24,1,3.63,3.63,0,0,0-.63.53,6.32,6.32,0,0,1-1.3.87c-.67.38-1.57.84-2.71,1.4-2.08,1-3.55,1.69-4.43,2S211.25,37.08,211.25,37.45Zm-3.27-15c.4-.29.77-.58,1.13-.86a2.13,2.13,0,0,1,1.37-.42c.25,0,.55.28.92.83a2.68,2.68,0,0,1,.54,1.23,7.29,7.29,0,0,1-.15,1c-.11.52-.28,1.23-.5,2.12q-.72,3-.81,3.78c-.07.51-.2,1.3-.41,2.38-.08.27-.16.62-.25,1.06a.6.6,0,0,0,.11.4.35.35,0,0,0,.3.13c4.13-2.08,6.27-3.15,6.41-3.24a4,4,0,0,0,.53-.17,5.27,5.27,0,0,0,.53-.23l.47-.59q1.8-1.16,3.74-2.46a7.9,7.9,0,0,0,1.8-1.84,3.23,3.23,0,0,0,.6-1.81A3.1,3.1,0,0,0,223,21.48a15,15,0,0,0-4-2.15A28.56,28.56,0,0,0,214.81,18a15.66,15.66,0,0,0-3.4-.42,5.23,5.23,0,0,0-3,.7,2.36,2.36,0,0,0-1,2.07,6,6,0,0,0,.16,1.61C207.65,22.33,207.8,22.49,208,22.45Z" transform="translate(-0.19 -8.56)"/><path class="cls-2" d="M256,45.66l1.18,2.86c-.23.21-.5.43-.82.67s-.71.5-1.14.77a16.12,16.12,0,0,0-1.57.62l-2.11.93a13.54,13.54,0,0,1-1.48.84,2.23,2.23,0,0,1-.79.28,6.06,6.06,0,0,0-1.48.35q-1.08.35-2.82,1c-.62.23-1.28.47-2,.71s-1.42.45-2.16.63l-1.93-.4-1.19.53-1.2,0c-.4,0-.79,0-1.16-.07a3.82,3.82,0,0,1-1.36-.25.69.69,0,0,1-.45-.63l.19-1.18-.19-.22a2.45,2.45,0,0,1-1.42-.28c-.24-.19-.36-.62-.36-1.31,0-.31,0-.83.05-1.55s.08-1.68.14-2.84a2.52,2.52,0,0,1,.2-.65,2.21,2.21,0,0,0,.21-.72,1.68,1.68,0,0,1-.19-.5,2.14,2.14,0,0,1,0-.34c0-.81.13-1.81.26-3s.31-2.59.52-4.21a32.1,32.1,0,0,0,.62-3.3c0-.91-.08-1.85-.13-2.8q1.15-5.17,2.37-10.41a5.6,5.6,0,0,1,.7-1.77,10.19,10.19,0,0,1,1.23-1.62,2.15,2.15,0,0,0,.41-.34c.1-.19.24-.42.4-.7l.59-.95.61-.38,1.14-.68.71-.59c.27-.23.59-.5.94-.82a21.26,21.26,0,0,0,2.2-1.51,5,5,0,0,1,2.53-1l1.44-.07,1.37-.11a7.36,7.36,0,0,1,1.09-.16l.54-.12a1.41,1.41,0,0,1,.42-.07,4.21,4.21,0,0,1,.52.05l.89.14.74,0a5.74,5.74,0,0,0,.6,0,3.63,3.63,0,0,1,1.83,1.09,2.58,2.58,0,0,1,.59,1.71,9.12,9.12,0,0,1-.42,3.2,1.4,1.4,0,0,1-1.32,1,2.6,2.6,0,0,1-1.56-.7c-.58-.47-2.15-.7-4.7-.7l-3.15.62a1.18,1.18,0,0,1-.35.38,3,3,0,0,1-.36.18l-1.09-.4a2.8,2.8,0,0,0-1.13,1,14,14,0,0,0-1.3,2.31,2.56,2.56,0,0,0-.24.78,6.85,6.85,0,0,0-.08,1.09c-.37,1.49-.74,2.94-1.12,4.33s-.64,2.63-.85,3.39-.35,1.24-.39,1.41-.12.4-.16.59a2.6,2.6,0,0,0-.06.56,1,1,0,0,0,.16.62.51.51,0,0,0,.46.22c.19,0,.64-.34,1.36-1a4.45,4.45,0,0,1,1.6-1.15c.44-.13.88-.26,1.33-.41a14.28,14.28,0,0,0,1.38-.53,11.7,11.7,0,0,1,1.48-.24c.8-.11,1.92-.23,3.35-.38l.87.25,1.65-.31.88.4a4.4,4.4,0,0,1,.57.77,6.86,6.86,0,0,1,.48,1,7.65,7.65,0,0,1-.4,2.83,1.31,1.31,0,0,1-1.22,1l-1.71-.69-4.19.42c-1.38.14-2.79.27-4.22.39a9,9,0,0,0-4,1.72,4.35,4.35,0,0,0-1.55,3.11c0,.27-.1.69-.22,1.25s-.27,1.25-.44,2.08l.22.94c-.19.89-.33,1.73-.44,2.52a17.11,17.11,0,0,0-.15,2.12.84.84,0,0,0,.09.45.16.16,0,0,0,.22.08l2.4-.19a10,10,0,0,1,1.27,0l1.66.13,2-.16a9.89,9.89,0,0,0,1.35-.5,5,5,0,0,1,1.89-.43,9.46,9.46,0,0,0,1.82-.19,12.33,12.33,0,0,0,1.76-.5l1.67-.64,1.66-.64a5,5,0,0,0,.83-.34C255.16,46.15,255.56,45.93,256,45.66Z" transform="translate(-0.19 -8.56)"/><path class="cls-2" d="M280.63,12.08c.47.14,1,.3,1.46.48s1,.36,1.46.55a3.4,3.4,0,0,1,.77.68c.34.38.78.9,1.32,1.59a10.89,10.89,0,0,1,1.08,1.45c.11.24.33.82.66,1.76a11.57,11.57,0,0,1,.89,1.91,6.33,6.33,0,0,1,.55,2q0,1.13-1.68,2.73c-1.13,1.07-2,1.6-2.65,1.6a1.08,1.08,0,0,1-.92-.39,1.83,1.83,0,0,1-.3-1.13c-.18-.83-.33-1.55-.43-2.15a12.89,12.89,0,0,0-2.32-5.11A4.49,4.49,0,0,0,277,16.35a6.13,6.13,0,0,0-2.07.35,5.76,5.76,0,0,0-1.85,1.08,10,10,0,0,0-1.16,1.15c-.47.54-1,1.22-1.71,2a4.45,4.45,0,0,1-.34.49c-.15.19-.32.44-.53.75s-.43.78-.73,1.26-.67,1.05-1.11,1.67c-.19.54-.37,1-.56,1.49a6.82,6.82,0,0,1-.69,1.28,1.6,1.6,0,0,0-.18.48c-.06.24-.14.56-.22.95l-.48,1.56c-.18.56-.37,1.18-.58,1.84q-.5,3.39-.72,5.37c-.14,1.32-.21,2.18-.21,2.57a15.08,15.08,0,0,0,.23,2.68A15.46,15.46,0,0,0,264.8,46q.38,1,.72,1.65a3.92,3.92,0,0,0,.65,1,3,3,0,0,0,1.19.71,4.64,4.64,0,0,0,1.58.25,6.47,6.47,0,0,0,2.37-.43A7.88,7.88,0,0,0,273.4,48c.19-.16.56-.54,1.12-1.13l2.27-2.42a8.28,8.28,0,0,0,.77-.7l1-1c.39-.54.76-1.08,1.1-1.62s.69-1.06,1.05-1.56a4.3,4.3,0,0,1,1.45-1.24,3.74,3.74,0,0,1,1.73-.41,2.8,2.8,0,0,1,1.9.56,2.17,2.17,0,0,1,.62,1.68,3.56,3.56,0,0,1-.22,1,6.67,6.67,0,0,0-.28,1c0,.37-.1.84-.19,1.39s-.17,1.2-.28,1.94a14.64,14.64,0,0,1-.3,2.5,7.84,7.84,0,0,1-.64,1.9,13.38,13.38,0,0,0-.85,3.39,13,13,0,0,1-.89,3.43,3.43,3.43,0,0,0-.35,1c-.1.45-.22,1-.34,1.7a6.41,6.41,0,0,1-.3,1.12,1.8,1.8,0,0,1-.48.75,6.12,6.12,0,0,1-.69.4,8.56,8.56,0,0,1-1.21.47,2.26,2.26,0,0,1-.44,1.07,1.06,1.06,0,0,1-.84.36.74.74,0,0,1-.67-.37,2.35,2.35,0,0,1-.24-1.22,7.32,7.32,0,0,1,.11-1c.08-.45.21-1,.39-1.7A10.63,10.63,0,0,0,277.9,58c.06-.56.1-1.24.12-2.05.05-.42.15-1.07.33-2s.43-2,.76-3.3l-.4-2a7.27,7.27,0,0,0,.22-.84.39.39,0,0,0-.44-.44,15.08,15.08,0,0,0-1.8,1.43c-1.06.92-1.95,1.67-2.68,2.25s-1.29,1-1.68,1.27a15.36,15.36,0,0,1-2.52,1.34,10.21,10.21,0,0,1-2.62.72l-1.37-.28c-.41.06-.76.12-1.05.19A3.66,3.66,0,0,1,263.3,54,8.21,8.21,0,0,1,259,49.39a8,8,0,0,1-.47-1.49c-.19-.75-.44-1.7-.75-2.87a5.82,5.82,0,0,0,.35-1.62,9.11,9.11,0,0,0-.07-1.86l.63-4.68a33.72,33.72,0,0,1,2.94-10.4,27.45,27.45,0,0,1,5.72-7.94c.79-.79,1.45-1.43,2-1.9a10.13,10.13,0,0,0,1-1c.45-.35,1-.71,1.51-1.06s1.15-.71,1.79-1.06c.33-.19.71-.38,1.14-.58s.93-.4,1.51-.6l2.89-.35,1,.25Z" transform="translate(-0.19 -8.56)"/><path class="cls-2" d="M294.87,20.46l-.5-2c.12-.41.25-.83.37-1.26s.24-.85.35-1.26a1.3,1.3,0,0,1,.64-.67,2.57,2.57,0,0,1,1.2-.23,4.89,4.89,0,0,0,.85-.13,4.72,4.72,0,0,1,.83-.12,1.28,1.28,0,0,1,.75.43,2.53,2.53,0,0,0,.65.5,3.21,3.21,0,0,0,.55-.53c.22-.25.48-.58.79-1a5.67,5.67,0,0,1,.78-.82,2.27,2.27,0,0,1,.81-.43c.34.17.64.3.89.4a.91.91,0,0,1,.3.28,1,1,0,0,1,.08.44,3.52,3.52,0,0,1-.16.67c-.1.34-.26.81-.47,1.39s-.41,1.14-.53,1.55a8.22,8.22,0,0,0-.25,1,10,10,0,0,0-.73,1.29A2.56,2.56,0,0,0,301.8,21a7.44,7.44,0,0,0,.37,1.85c.25.82.62,1.84,1.09,3.07.67,1.66,1.34,3.39,2,5.2q.93,3,2,5.78c.68,1.86,1.4,3.64,2.14,5.34a41.82,41.82,0,0,0,1.9,4c.5.87.87,1.31,1.12,1.31a.47.47,0,0,0,.45-.36A3.22,3.22,0,0,0,313,46a5.75,5.75,0,0,1,.08-.81,8.06,8.06,0,0,1,.26-1.09,18.7,18.7,0,0,0,.53-1.9c.21-1.08.4-2,.57-2.83s.33-1.51.45-2.09a20,20,0,0,0,.28-2.37c.11-1.2.21-2.83.31-4.89a5.09,5.09,0,0,1,.11-.87c.07-.37.14-.8.2-1.28s.15-.89.19-1.23a8,8,0,0,0,.06-.92q0-.72-.15-2.13a20,20,0,0,1-.16-2.14c.31-1.3.6-2.58.87-3.83.23-1.08.45-2,.66-2.69a17,17,0,0,1,.53-1.64A7.69,7.69,0,0,1,319,11.38,7,7,0,0,1,320.59,10h.25a.51.51,0,0,1,.42.13.6.6,0,0,1,.11.4c-.11.44-.2.77-.28,1s.12.77.19,1.18-.14,1-.22,1.31-.09.58-.13,1-.06,1-.06,1.7c0,.25,0,.79-.09,1.61s-.18,1.91-.34,3.28c-.13,1.95-.28,3.9-.46,5.83s-.35,3.86-.54,5.79c-.17,2.33-.4,4.45-.71,6.37a48.22,48.22,0,0,1-1.12,5.16,25.09,25.09,0,0,1-.58,3c-.28,1.12-.64,2.34-1.07,3.64l-1,1.56a11.28,11.28,0,0,1-2,.8,15.31,15.31,0,0,1-2.08.66c-.31,0-.78-.41-1.4-1.23a25.05,25.05,0,0,1-2.21-3.75c-.81-1.51-1.46-2.77-1.93-3.75a13.48,13.48,0,0,1-.91-2.23q-.06-.28-.18-.72c-.09-.29-.18-.62-.28-1-.42-.92-.94-2-1.58-3.4s-1.36-3-2.19-4.8a9.44,9.44,0,0,0-.55-1.32,15.54,15.54,0,0,0-.79-1.35l-.22.09a14.53,14.53,0,0,0-.44,1.56c-.14.62-.31,1.37-.5,2.24a12.51,12.51,0,0,1-.65,1.49c-.32,1.21-.67,2.52-1.06,3.93s-.83,2.93-1.28,4.55c-.13.54-.25,1.1-.38,1.68s-.27,1.18-.44,1.81l-.56,1c-.08.63-.18,1.24-.28,1.84s-.33,1.06-.55,1.73-.48,1.48-.79,2.41a1.93,1.93,0,0,1-.45,1.08,1.44,1.44,0,0,1-1,.39.74.74,0,0,1-.25.26,1.94,1.94,0,0,1-.62.27c-.21,0-.36-.07-.47-.33a3.33,3.33,0,0,1-.15-1.14A9.79,9.79,0,0,1,289,54.5c.11-.62.26-1.41.47-2.36s.41-1.93.55-2.54.22-1,.26-1.17c.09-.5.18-1.15.28-2s.22-1.75.35-2.81c0-.27.11-.6.2-1s.21-.88.36-1.42.31-1.54.62-3.38.72-4.39,1.22-7.67S294.37,23.72,294.87,20.46Z" transform="translate(-0.19 -8.56)"/><path class="cls-2" d="M348.13,45.66l1.18,2.86a9.57,9.57,0,0,1-.83.67c-.32.24-.7.5-1.13.77s-1,.35-1.58.62l-2.1.93a13.54,13.54,0,0,1-1.48.84,2.23,2.23,0,0,1-.79.28,6,6,0,0,0-1.48.35q-1.08.35-2.82,1c-.62.23-1.28.47-2,.71s-1.42.45-2.16.63l-1.94-.4-1.18.53-1.2,0c-.4,0-.79,0-1.17-.07a3.8,3.8,0,0,1-1.35-.25.69.69,0,0,1-.45-.63l.18-1.18-.18-.22a2.45,2.45,0,0,1-1.42-.28c-.24-.19-.36-.62-.36-1.31,0-.31,0-.83.05-1.55s.08-1.68.14-2.84a2.52,2.52,0,0,1,.2-.65,2.12,2.12,0,0,0,.2-.72,1.92,1.92,0,0,1-.18-.5,2.14,2.14,0,0,1,0-.34c0-.81.12-1.81.26-3s.31-2.59.51-4.21a29.49,29.49,0,0,0,.63-3.3c-.05-.91-.09-1.85-.13-2.8q1.15-5.17,2.37-10.41a5.37,5.37,0,0,1,.7-1.77,10.19,10.19,0,0,1,1.23-1.62,2.55,2.55,0,0,0,.41-.34c.1-.19.23-.42.4-.7s.36-.6.59-.95l.61-.38,1.14-.68.71-.59.94-.82a20.09,20.09,0,0,0,2.19-1.51,5.1,5.1,0,0,1,2.54-1l1.44-.07,1.37-.11a7.36,7.36,0,0,1,1.09-.16l.54-.12a1.41,1.41,0,0,1,.42-.07,4.21,4.21,0,0,1,.52.05l.88.14.75,0a5.41,5.41,0,0,0,.59,0,3.66,3.66,0,0,1,1.84,1.09,2.58,2.58,0,0,1,.59,1.71,9.12,9.12,0,0,1-.42,3.2,1.4,1.4,0,0,1-1.32,1,2.6,2.6,0,0,1-1.56-.7c-.58-.47-2.15-.7-4.7-.7l-3.15.62a1.1,1.1,0,0,1-.36.38,2.35,2.35,0,0,1-.35.18l-1.1-.4a2.85,2.85,0,0,0-1.12,1A14.67,14.67,0,0,0,334,20.27a2.89,2.89,0,0,0-.23.78,6.85,6.85,0,0,0-.08,1.09c-.37,1.49-.74,2.94-1.12,4.33s-.64,2.63-.85,3.39-.35,1.24-.39,1.41a4.73,4.73,0,0,0-.16.59,2.6,2.6,0,0,0-.06.56,1.07,1.07,0,0,0,.15.62.54.54,0,0,0,.47.22c.19,0,.64-.34,1.36-1a4.45,4.45,0,0,1,1.6-1.15c.44-.13.88-.26,1.32-.41a13.48,13.48,0,0,0,1.39-.53,11.7,11.7,0,0,1,1.48-.24c.8-.11,1.92-.23,3.35-.38l.87.25,1.65-.31.87.4a4,4,0,0,1,.58.77,6.86,6.86,0,0,1,.48,1,7.65,7.65,0,0,1-.4,2.83,1.31,1.31,0,0,1-1.22,1l-1.71-.69-4.19.42c-1.38.14-2.79.27-4.22.39a9,9,0,0,0-4,1.72,4.39,4.39,0,0,0-1.56,3.11,10.26,10.26,0,0,1-.21,1.25c-.13.56-.27,1.25-.44,2.08l.22.94c-.19.89-.33,1.73-.44,2.52a17.11,17.11,0,0,0-.15,2.12.84.84,0,0,0,.09.45.16.16,0,0,0,.22.08l2.4-.19a10,10,0,0,1,1.27,0l1.65.13,2-.16a9.89,9.89,0,0,0,1.35-.5,5,5,0,0,1,1.89-.43,9.46,9.46,0,0,0,1.82-.19,12.33,12.33,0,0,0,1.76-.5l1.66-.64,1.67-.64a5.4,5.4,0,0,0,.83-.34C347.27,46.15,347.67,45.93,348.13,45.66Z" transform="translate(-0.19 -8.56)"/><path class="cls-2" d="M359.87,37.45a3,3,0,0,0,.89,1.67,25,25,0,0,0,2.66,2.57c.77.65,1.56,1.27,2.38,1.89l2.45,1.85,1.37,1.14,2,1.64c.54.41,1.11.83,1.7,1.24s1.23.83,1.92,1.25c.45.35,1,.74,1.52,1.15s1.21.86,1.93,1.34a2.42,2.42,0,0,1,1,1.36,8.83,8.83,0,0,1,.4,2.54l-.28.81-.31.15a1.85,1.85,0,0,1-.82-.26c-.35-.18-.78-.43-1.3-.76q-.15-.11-1.41-.69l-3.63-1.68a15.94,15.94,0,0,1-2.4-1.27,16.32,16.32,0,0,1-2-1.48,16.36,16.36,0,0,0-1.36-1c-.55-.37-1.2-.78-1.95-1.21s-1.43-.85-2-1.25-1-.73-1.34-1c-1.12-.91-2-1.61-2.74-2.09a3.63,3.63,0,0,0-1.46-.71,1.72,1.72,0,0,0-.35.9c-.25,1-.51,2.21-.79,3.7s-.59,3.21-.92,5.19a1.32,1.32,0,0,1-.19.79.63.63,0,0,1-.56.27,2.61,2.61,0,0,1-1.84-.59,2.38,2.38,0,0,1-.62-1.78,30.3,30.3,0,0,1,.2-3.34,32.39,32.39,0,0,1,.67-3.68c.11-.56.18-1.06.24-1.51a11.13,11.13,0,0,0,.07-1.23,3.09,3.09,0,0,0-1.23-2.46q-1.23-1-1.23-1.47a3.21,3.21,0,0,1,.21-1.2,1.85,1.85,0,0,1,.6-.82c.69-.44,1.32-.85,1.9-1.25a.61.61,0,0,0,.3-.42,3.41,3.41,0,0,0,.08-.82V33.56q.09-2.78.15-5.76v-.69c0-.31,0-.71-.06-1.21a6.17,6.17,0,0,1,0-1c0-.32,0-.62,0-.89s-.23-.77-.33-1.07a3,3,0,0,1-.14-.86c0-.25,0-.64.07-1.17s.06-.91.06-1.13,0-.7-.08-1.22-.08-.91-.08-1.18a4.67,4.67,0,0,1,.52-2.15,7.2,7.2,0,0,1,1.57-2,8.47,8.47,0,0,1,2.1-1.33,5.66,5.66,0,0,1,2.2-.45c.35,0,.87,0,1.57.08s1.24.08,1.64.08a10.34,10.34,0,0,1,2.21.68,12.31,12.31,0,0,1,1.27.17,7.62,7.62,0,0,1,.91.24l1.21.57a2.63,2.63,0,0,0,.63.24l.92.31a2.18,2.18,0,0,1,.63.31l.95.44,1.23.56a13.73,13.73,0,0,1,2.11,1.3A19,19,0,0,1,376.69,18a9.56,9.56,0,0,1,1.5,2.2,5,5,0,0,1,.49,2.13c0,.21,0,.5,0,.89s-.09.81-.17,1.29a4,4,0,0,1-.94,1.95,15.3,15.3,0,0,1-2.43,2.29,29.45,29.45,0,0,1-2.61,1.82,10.73,10.73,0,0,1-2.25,1,3.18,3.18,0,0,0-.62.53,6.48,6.48,0,0,1-1.31.87c-.66.38-1.57.84-2.71,1.4q-3.12,1.53-4.42,2C360.31,36.73,359.87,37.08,359.87,37.45Zm-3.27-15c.39-.29.77-.58,1.12-.86a2.13,2.13,0,0,1,1.37-.42c.25,0,.56.28.92.83a2.68,2.68,0,0,1,.54,1.23,7.29,7.29,0,0,1-.15,1c-.11.52-.27,1.23-.5,2.12q-.72,3-.81,3.78c-.06.51-.2,1.3-.4,2.38a8,8,0,0,0-.25,1.06.55.55,0,0,0,.11.4.35.35,0,0,0,.29.13c4.13-2.08,6.27-3.15,6.42-3.24a5.31,5.31,0,0,0,.53-.17l.53-.23.46-.59c1.21-.77,2.45-1.59,3.74-2.46a8.17,8.17,0,0,0,1.81-1.84,3.3,3.3,0,0,0,.59-1.81,3.1,3.1,0,0,0-1.34-2.27,14.64,14.64,0,0,0-4-2.15A27.81,27.81,0,0,0,363.42,18a15.65,15.65,0,0,0-3.39-.42,5.27,5.27,0,0,0-3,.7,2.35,2.35,0,0,0-1,2.07,6.52,6.52,0,0,0,.15,1.61C356.27,22.33,356.41,22.49,356.6,22.45Z" transform="translate(-0.19 -8.56)"/></g></g></svg>