<svg xmlns="http://www.w3.org/2000/svg" width="170.942" height="18.416" viewBox="0 0 170.942 18.416">
  <g id="Group_2" data-name="Group 2" transform="translate(-26.826 -16.666)">
    <path id="Path_1" data-name="Path 1" d="M227.163,34.6h9.956V32.891h-8.208V26.016h6.651V24.3h-6.651V18.819h8.28V17.106H227.163Zm-31.1,0h9.957V32.891h-8.208V26.016h6.339V24.3h-6.339V18.819h8.279V17.106H196.06Zm-10.29,0h8.482V32.915h-6.733V17.106h-1.749Zm-10.279,0h8.482V32.915h-6.733V17.106H175.49Zm-7.317-15.225a7.257,7.257,0,0,1,2.734,2.7,7.412,7.412,0,0,1,.971,3.768,7.6,7.6,0,0,1-.971,3.809,7.076,7.076,0,0,1-2.7,2.7,7.49,7.49,0,0,1-3.771.988,7.36,7.36,0,0,1-7.375-7.417,7.58,7.58,0,0,1,.977-3.822,7.472,7.472,0,0,1,6.4-3.738,7.4,7.4,0,0,1,3.742,1.012M159.8,17.885a8.88,8.88,0,0,0-3.327,3.373,9.325,9.325,0,0,0-1.22,4.675,8.759,8.759,0,0,0,2.678,6.448,8.957,8.957,0,0,0,6.571,2.665,9.133,9.133,0,0,0,9.189-9.2,8.831,8.831,0,0,0-2.678-6.531,9.079,9.079,0,0,0-6.653-2.652,8.949,8.949,0,0,0-4.559,1.219m-8.082-.25a9.908,9.908,0,0,0-4.425-.969,9.288,9.288,0,0,0-6.751,2.623,8.668,8.668,0,0,0-2.694,6.465,9.226,9.226,0,0,0,2.224,6.233,9.093,9.093,0,0,0,7.245,3.057,10.252,10.252,0,0,0,4.372-.91,8.819,8.819,0,0,0,3.265-2.576l-1.379-1.047a7.787,7.787,0,0,1-6.15,2.879,7.606,7.606,0,0,1-5.538-2.142,7.158,7.158,0,0,1-2.195-5.341,7.468,7.468,0,0,1,.982-3.813,7.212,7.212,0,0,1,2.766-2.7,7.767,7.767,0,0,1,3.878-1.005,8.025,8.025,0,0,1,3.515.767,7.548,7.548,0,0,1,2.742,2.255l1.379-1.059a8.585,8.585,0,0,0-3.235-2.718" transform="translate(-39.423)" fill="#1a1818"/>
    <path id="Path_2" data-name="Path 2" d="M78.785,34.627h5.848V28.353h5.348v6.273H95.83v-17.5H89.982v6.174H84.634V17.132H78.785Zm-6.335,0a9.035,9.035,0,0,0,2.3-1.012,7.88,7.88,0,0,0,1.762-1.5,11.154,11.154,0,0,0,1.3-1.837l-4.824-2.725a5.519,5.519,0,0,1-1.3,1.587,3.062,3.062,0,0,1-2,.613,3.027,3.027,0,0,1-1.325-.288,3.122,3.122,0,0,1-1.037-.8,3.637,3.637,0,0,1-.675-1.225,4.925,4.925,0,0,1-.237-1.562v-.05a4.569,4.569,0,0,1,.237-1.475,3.952,3.952,0,0,1,.662-1.225,3.09,3.09,0,0,1,1.025-.825,2.979,2.979,0,0,1,1.35-.3,3.019,3.019,0,0,1,1.937.587,4.778,4.778,0,0,1,1.237,1.537l4.824-2.825a9.574,9.574,0,0,0-1.312-1.837,7.893,7.893,0,0,0-1.749-1.437,8.722,8.722,0,0,0-2.2-.937,9.9,9.9,0,0,0-2.661-.337,9.647,9.647,0,0,0-3.649.687,9.116,9.116,0,0,0-2.961,1.912,8.784,8.784,0,0,0-1.975,2.9,9.165,9.165,0,0,0-.713,3.624v.05a9.071,9.071,0,0,0,.738,3.7,8.8,8.8,0,0,0,4.873,4.724A9.3,9.3,0,0,0,69.538,35a10.405,10.405,0,0,0,2.912-.375m-27.8,0H59.691v-4.8h-9.3v-1.9h7.838V23.705H50.393V21.93h9.173v-4.8H44.646Zm-12.671,0h5.848V22.081h5.148V17.132H26.826v4.949h5.148Z" transform="translate(0 -0.032)" fill="#1a1818"/>
    <path id="Path_3" data-name="Path 3" d="M259.479,18.109a9.179,9.179,0,1,0,4.209,6.056l-1.585.31a7.564,7.564,0,1,1-3.469-4.991Z" transform="translate(-77.654 -0.032)" fill="#1a1818"/>
    <rect id="Rectangle_1" data-name="Rectangle 1" width="8.493" height="1.64" transform="matrix(0.819, -0.573, 0.573, 0.819, 176.972, 24.94)" fill="#1a1818"/>
  </g>
</svg>
